<?xml version="1.0" encoding="UTF-8"?>
<!DOCTYPE svg PUBLIC "-//W3C//DTD SVG 1.1//EN" "http://www.w3.org/Graphics/SVG/1.1/DTD/svg11.dtd">
<svg xmlns="http://www.w3.org/2000/svg" version="1.1" width="1920px" height="1007px" style="shape-rendering:geometricPrecision; text-rendering:geometricPrecision; image-rendering:optimizeQuality; fill-rule:evenodd; clip-rule:evenodd" xmlns:xlink="http://www.w3.org/1999/xlink">
<g><path style="opacity:1" fill="#245c51" d="M -0.5,-0.5 C 279.5,-0.5 559.5,-0.5 839.5,-0.5C 839.5,2.16667 839.5,4.83333 839.5,7.5C 834.646,7.81205 831.979,10.4787 831.5,15.5C 829.833,15.5 828.167,15.5 826.5,15.5C 826.665,18.8499 826.498,22.1832 826,25.5C 824.441,27.2166 823.608,29.2166 823.5,31.5C 821.833,31.5 820.167,31.5 818.5,31.5C 818.665,34.8499 818.498,38.1832 818,41.5C 816.441,43.2166 815.608,45.2166 815.5,47.5C 813.833,47.5 812.167,47.5 810.5,47.5C 810.752,53.1429 809.752,58.4762 807.5,63.5C 805.833,63.5 804.167,63.5 802.5,63.5C 802.665,67.1817 802.499,70.8484 802,74.5C 800.659,77.022 799.826,79.6887 799.5,82.5C 794.553,82.5028 793.22,84.8362 795.5,89.5C 793.161,93.8528 791.828,98.5194 791.5,103.5C 790.167,103.5 788.833,103.5 787.5,103.5C 787.664,106.187 787.497,108.854 787,111.5C 784.586,116.576 783.086,121.91 782.5,127.5C 778.216,134.859 775.549,142.859 774.5,151.5C 770.128,159.594 767.461,168.26 766.5,177.5C 765.667,178.5 764.833,179.5 764,180.5C 762.006,192.129 760.506,203.795 759.5,215.5C 758.167,215.5 756.833,215.5 755.5,215.5C 753.831,234.198 751.831,252.865 749.5,271.5C 733.982,434.938 771.315,583.938 861.5,718.5C 894.545,765.946 932.878,808.779 976.5,847C 977.448,847.483 978.448,847.649 979.5,847.5C 979.281,848.675 979.614,849.675 980.5,850.5C 1003.32,868.83 1026.82,886.163 1051,902.5C 1052.44,903.148 1053.94,903.481 1055.5,903.5C 1054.86,907.455 1056.36,910.122 1060,911.5C 1060.69,910.643 1061.52,909.977 1062.5,909.5C 1086.35,924.276 1111.01,937.443 1136.5,949C 1135.83,949.667 1135.17,950.333 1134.5,951C 1139.25,951.189 1143.92,951.855 1148.5,953C 1154.83,956 1161.17,959 1167.5,962C 1182.63,967.83 1197.97,973.164 1213.5,978C 1231.16,983.569 1249.16,988.069 1267.5,991.5C 1267.5,994.167 1267.5,996.833 1267.5,999.5C 1272.46,998.511 1277.46,997.678 1282.5,997C 1280.86,996.399 1279.2,995.899 1277.5,995.5C 1275.53,996.331 1273.53,996.498 1271.5,996C 1274.07,995.042 1276.74,994.542 1279.5,994.5C 1296.89,997.016 1314.23,999.849 1331.5,1003C 1346.28,1004.66 1360.95,1005.83 1375.5,1006.5C 916.833,1006.5 458.167,1006.5 -0.5,1006.5C -0.5,670.833 -0.5,335.167 -0.5,-0.5 Z"/></g>
<g><path style="opacity:1" fill="#245c51" d="M 839.5,-0.5 C 887.5,-0.5 935.5,-0.5 983.5,-0.5C 983.5,2.16667 983.5,4.83333 983.5,7.5C 980.833,7.5 978.167,7.5 975.5,7.5C 975.5,10.1667 975.5,12.8333 975.5,15.5C 974.5,15.5 973.5,15.5 972.5,15.5C 972.5,18.1667 972.5,20.8333 972.5,23.5C 970.833,23.5 969.167,23.5 967.5,23.5C 967.5,26.1667 967.5,28.8333 967.5,31.5C 964.833,31.5 962.167,31.5 959.5,31.5C 959.5,36.8333 959.5,42.1667 959.5,47.5C 956.167,47.5 952.833,47.5 949.5,47.5C 949.682,49.6746 950.349,51.6746 951.5,53.5C 951.167,54.1667 950.833,54.8333 950.5,55.5C 948.58,51.807 947.247,51.807 946.5,55.5C 945.5,55.5 944.5,55.5 943.5,55.5C 942.034,60.6823 941.034,66.0156 940.5,71.5C 938.833,71.5 937.167,71.5 935.5,71.5C 935.392,73.7834 934.559,75.7834 933,77.5C 932.502,80.8168 932.335,84.1501 932.5,87.5C 930.5,87.5 928.5,87.5 926.5,87.5C 924.969,92.6922 924.303,98.0255 924.5,103.5C 922.833,103.5 921.167,103.5 919.5,103.5C 919.392,105.783 918.559,107.783 917,109.5C 916.502,112.817 916.335,116.15 916.5,119.5C 914.833,119.5 913.167,119.5 911.5,119.5C 911.392,121.783 910.559,123.783 909,125.5C 908.502,128.817 908.335,132.15 908.5,135.5C 906.833,135.5 905.167,135.5 903.5,135.5C 903.662,137.527 903.495,139.527 903,141.5C 899.777,145.722 898.777,150.389 900,155.5C 898.644,156.38 897.144,156.714 895.5,156.5C 894.92,160.142 894.42,163.809 894,167.5C 892.555,170.09 891.388,172.757 890.5,175.5C 889.5,175.5 888.5,175.5 887.5,175.5C 887.371,183.732 885.871,191.732 883,199.5C 882.503,202.146 882.336,204.813 882.5,207.5C 881.5,207.5 880.5,207.5 879.5,207.5C 878.472,218.276 876.805,228.943 874.5,239.5C 876.167,239.5 877.833,239.5 879.5,239.5C 879.5,242.167 879.5,244.833 879.5,247.5C 876.833,247.5 874.167,247.5 871.5,247.5C 866.776,275.632 863.776,303.965 862.5,332.5C 862.833,334.167 863.167,335.833 863.5,337.5C 864.308,337.192 864.975,336.692 865.5,336C 863.363,333.821 863.029,331.321 864.5,328.5C 867.773,327.415 871.106,327.248 874.5,328C 871.635,328.837 868.802,329.67 866,330.5C 865.591,332.695 866.091,334.695 867.5,336.5C 864.779,337.696 863.613,339.696 864,342.5C 866.705,339.964 869.205,337.297 871.5,334.5C 873.812,333.68 876.146,332.847 878.5,332C 879.252,331.329 879.586,330.496 879.5,329.5C 881.821,327.91 882.821,325.577 882.5,322.5C 883.166,325.689 883.833,329.023 884.5,332.5C 884.769,328.236 884.936,323.903 885,319.5C 885.607,327.129 889.607,330.129 897,328.5C 897.123,325.386 897.29,322.386 897.5,319.5C 898.308,321.423 898.808,323.423 899,325.5C 900.044,324.377 900.71,323.044 901,321.5C 901.69,320.262 902.19,320.262 902.5,321.5C 902.313,323.564 901.813,325.564 901,327.5C 896.509,331.079 891.843,334.412 887,337.5C 882.981,343.223 880.315,349.556 879,356.5C 874.92,359.457 870.753,362.29 866.5,365C 863.907,367.766 861.907,370.933 860.5,374.5C 861.167,375.833 861.833,375.833 862.5,374.5C 863.666,371.497 865.333,368.83 867.5,366.5C 872.008,363.747 876.341,360.747 880.5,357.5C 881.372,348.421 885.372,341.087 892.5,335.5C 898.142,334.185 901.809,330.852 903.5,325.5C 905.159,328.139 906.992,328.139 909,325.5C 910.016,326.634 910.683,326.301 911,324.5C 911.463,328.168 913.297,329.502 916.5,328.5C 917.386,329.325 917.719,330.325 917.5,331.5C 915.463,332.846 913.463,334.18 911.5,335.5C 915.187,334.824 918.52,333.324 921.5,331C 923.155,329.556 923.822,327.722 923.5,325.5C 925.074,323.898 925.741,321.898 925.5,319.5C 926.139,320.097 926.472,320.93 926.5,322C 927.266,328.539 924.6,332.872 918.5,335C 919,335.5 919.5,336 920,336.5C 925.647,333.379 926.48,334.046 922.5,338.5C 920.624,341.843 920.457,345.176 922,348.5C 922.233,344.326 923.566,340.659 926,337.5C 927.75,337.413 929.583,336.746 931.5,335.5C 929.015,337.652 927.349,340.319 926.5,343.5C 928.967,341.197 931.3,338.697 933.5,336C 936.661,334.587 939.661,332.92 942.5,331C 943.84,328.821 943.507,328.321 941.5,329.5C 940.34,327.797 941.007,327.131 943.5,327.5C 945.693,325.478 946.693,322.811 946.5,319.5C 947.643,330.016 949.143,330.016 951,319.5C 951.326,323.53 951.326,327.53 951,331.5C 952.909,331.673 954.743,332.007 956.5,332.5C 951.666,335.669 948.333,340.002 946.5,345.5C 945.172,349.061 943.839,352.727 942.5,356.5C 943.359,357.774 944.026,357.608 944.5,356C 945.361,352.863 946.027,349.697 946.5,346.5C 947.649,346.791 948.316,347.624 948.5,349C 947.602,352.527 946.602,356.027 945.5,359.5C 945.818,360.647 946.484,361.481 947.5,362C 946.029,364.243 945.029,366.743 944.5,369.5C 943.528,367.364 941.861,366.197 939.5,366C 940.308,365.692 940.975,365.192 941.5,364.5C 939.052,364.281 936.718,364.281 934.5,364.5C 936.519,362.494 938.852,360.828 941.5,359.5C 935.981,359.779 931.647,362.446 928.5,367.5C 927.115,368.574 925.949,369.907 925,371.5C 924.091,375.54 923.091,379.54 922,383.5C 919.412,386.2 916.579,388.533 913.5,390.5C 917.23,389.944 920.397,388.278 923,385.5C 924.342,381.768 925.509,378.101 926.5,374.5C 926.334,378.514 926.501,382.514 927,386.5C 929.326,386.88 931.159,387.88 932.5,389.5C 930.57,392.273 928.403,394.94 926,397.5C 924.743,403.884 922.576,409.884 919.5,415.5C 921.888,414.781 923.388,413.115 924,410.5C 925.522,398.476 932.022,390.476 943.5,386.5C 944.847,387.171 946.014,387.171 947,386.5C 948.547,381.874 949.88,377.207 951,372.5C 950.918,377.495 950.918,382.495 951,387.5C 951.725,388.059 952.558,388.392 953.5,388.5C 955.447,387.723 957.28,386.723 959,385.5C 959.765,385.57 960.265,385.903 960.5,386.5C 956.923,388.118 953.923,390.452 951.5,393.5C 948.818,395.53 947.151,398.197 946.5,401.5C 944.96,403.838 944.294,406.505 944.5,409.5C 945.612,407.401 946.279,405.067 946.5,402.5C 947.649,402.791 948.316,403.624 948.5,405C 948.037,407.389 947.37,409.723 946.5,412C 948.071,412.388 949.071,413.888 949.5,416.5C 949.167,416.833 948.833,417.167 948.5,417.5C 947.281,416.737 946.281,415.737 945.5,414.5C 944.914,414.709 944.414,415.043 944,415.5C 944.595,417.35 945.095,419.35 945.5,421.5C 947.179,421.285 948.179,421.952 948.5,423.5C 945.356,428.345 943.689,433.678 943.5,439.5C 945.6,433.296 948.266,427.296 951.5,421.5C 954.511,420.331 957.178,418.664 959.5,416.5C 963.385,415.737 965.719,413.404 966.5,409.5C 967.41,411.019 968.243,412.685 969,414.5C 974.728,451.918 985.061,487.918 1000,522.5C 1006.24,533.068 1011.57,544.068 1016,555.5C 1018.82,560.29 1021.82,564.957 1025,569.5C 1025.81,571.436 1026.31,573.436 1026.5,575.5C 1027.68,575.281 1028.68,575.614 1029.5,576.5C 1034.13,585.09 1039.3,593.424 1045,601.5C 1119.44,703.847 1219.94,765.347 1346.5,786C 1366.79,788.077 1387.12,789.077 1407.5,789C 1404.83,788.667 1402.17,788.333 1399.5,788C 1403.5,787.5 1407.5,787 1411.5,786.5C 1439.71,789.179 1467.71,787.679 1495.5,782C 1560.96,768.264 1620.63,742.098 1674.5,703.5C 1683.97,695.545 1693.63,687.712 1703.5,680C 1705.61,678.736 1706.61,676.903 1706.5,674.5C 1708.7,673.986 1710.7,672.986 1712.5,671.5C 1744.44,641.565 1771.61,607.898 1794,570.5C 1794.29,568.956 1794.96,567.623 1796,566.5C 1796.18,561.981 1796.68,557.647 1797.5,553.5C 1797.56,556.664 1798.22,559.664 1799.5,562.5C 1806.16,563.667 1809,561.001 1808,554.5C 1806.58,553.922 1805.75,552.922 1805.5,551.5C 1812.32,536.306 1819.16,520.972 1826,505.5C 1830.16,492.677 1834.5,480.01 1839,467.5C 1841.03,455.262 1844.03,443.262 1848,431.5C 1849.26,419.758 1850.93,408.091 1853,396.5C 1856.23,370.908 1857.06,345.241 1855.5,319.5C 1854.28,308.855 1853.28,298.188 1852.5,287.5C 1850.35,276.891 1848.51,266.224 1847,255.5C 1843.92,239.845 1839.92,224.511 1835,209.5C 1833.15,206.787 1831.98,203.787 1831.5,200.5C 1829.95,199.548 1828.29,199.215 1826.5,199.5C 1826.07,196.212 1826.74,193.212 1828.5,190.5C 1827.66,187.148 1826.16,184.148 1824,181.5C 1823.5,179.527 1823.34,177.527 1823.5,175.5C 1821.83,175.5 1820.17,175.5 1818.5,175.5C 1818.69,168.952 1817.69,162.619 1815.5,156.5C 1810.75,156.844 1809.41,154.844 1811.5,150.5C 1809.67,148.502 1808.67,146.168 1808.5,143.5C 1806.5,143.5 1804.5,143.5 1802.5,143.5C 1802.67,140.15 1802.5,136.817 1802,133.5C 1800.44,131.783 1799.61,129.783 1799.5,127.5C 1797.83,127.5 1796.17,127.5 1794.5,127.5C 1794.75,121.857 1793.75,116.524 1791.5,111.5C 1789.83,111.5 1788.17,111.5 1786.5,111.5C 1786.5,108.833 1786.5,106.167 1786.5,103.5C 1785.17,103.5 1783.83,103.5 1782.5,103.5C 1782.5,100.833 1782.5,98.1667 1782.5,95.5C 1780.17,95.5 1777.83,95.5 1775.5,95.5C 1775.5,92.8333 1775.5,90.1667 1775.5,87.5C 1773.83,87.5 1772.17,87.5 1770.5,87.5C 1770.5,84.8333 1770.5,82.1667 1770.5,79.5C 1767.83,79.5 1765.17,79.5 1762.5,79.5C 1762.5,76.8333 1762.5,74.1667 1762.5,71.5C 1761.5,71.5 1760.5,71.5 1759.5,71.5C 1759.5,68.8333 1759.5,66.1667 1759.5,63.5C 1756.83,63.5 1754.17,63.5 1751.5,63.5C 1751.5,60.8333 1751.5,58.1667 1751.5,55.5C 1748.83,55.5 1746.17,55.5 1743.5,55.5C 1743.5,52.8333 1743.5,50.1667 1743.5,47.5C 1740.83,47.5 1738.17,47.5 1735.5,47.5C 1735.5,44.8333 1735.5,42.1667 1735.5,39.5C 1732.83,39.5 1730.17,39.5 1727.5,39.5C 1727.5,36.8333 1727.5,34.1667 1727.5,31.5C 1724.83,31.5 1722.17,31.5 1719.5,31.5C 1719.5,28.8333 1719.5,26.1667 1719.5,23.5C 1716.83,23.5 1714.17,23.5 1711.5,23.5C 1711.5,20.8333 1711.5,18.1667 1711.5,15.5C 1708.83,15.5 1706.17,15.5 1703.5,15.5C 1703.5,12.8333 1703.5,10.1667 1703.5,7.5C 1700.83,7.5 1698.17,7.5 1695.5,7.5C 1695.5,4.83333 1695.5,2.16667 1695.5,-0.5C 1770.17,-0.5 1844.83,-0.5 1919.5,-0.5C 1919.5,335.167 1919.5,670.833 1919.5,1006.5C 1738.17,1006.5 1556.83,1006.5 1375.5,1006.5C 1360.95,1005.83 1346.28,1004.66 1331.5,1003C 1314.23,999.849 1296.89,997.016 1279.5,994.5C 1276.74,994.542 1274.07,995.042 1271.5,996C 1273.53,996.498 1275.53,996.331 1277.5,995.5C 1279.2,995.899 1280.86,996.399 1282.5,997C 1277.46,997.678 1272.46,998.511 1267.5,999.5C 1267.5,996.833 1267.5,994.167 1267.5,991.5C 1249.16,988.069 1231.16,983.569 1213.5,978C 1197.97,973.164 1182.63,967.83 1167.5,962C 1161.17,959 1154.83,956 1148.5,953C 1143.92,951.855 1139.25,951.189 1134.5,951C 1135.17,950.333 1135.83,949.667 1136.5,949C 1111.01,937.443 1086.35,924.276 1062.5,909.5C 1061.52,909.977 1060.69,910.643 1060,911.5C 1056.36,910.122 1054.86,907.455 1055.5,903.5C 1053.94,903.481 1052.44,903.148 1051,902.5C 1026.82,886.163 1003.32,868.83 980.5,850.5C 979.614,849.675 979.281,848.675 979.5,847.5C 978.448,847.649 977.448,847.483 976.5,847C 932.878,808.779 894.545,765.946 861.5,718.5C 771.315,583.938 733.982,434.938 749.5,271.5C 751.831,252.865 753.831,234.198 755.5,215.5C 756.833,215.5 758.167,215.5 759.5,215.5C 760.506,203.795 762.006,192.129 764,180.5C 764.833,179.5 765.667,178.5 766.5,177.5C 767.461,168.26 770.128,159.594 774.5,151.5C 775.549,142.859 778.216,134.859 782.5,127.5C 783.086,121.91 784.586,116.576 787,111.5C 787.497,108.854 787.664,106.187 787.5,103.5C 788.833,103.5 790.167,103.5 791.5,103.5C 791.828,98.5194 793.161,93.8528 795.5,89.5C 793.22,84.8362 794.553,82.5028 799.5,82.5C 799.826,79.6887 800.659,77.022 802,74.5C 802.499,70.8484 802.665,67.1817 802.5,63.5C 804.167,63.5 805.833,63.5 807.5,63.5C 809.752,58.4762 810.752,53.1429 810.5,47.5C 812.167,47.5 813.833,47.5 815.5,47.5C 815.608,45.2166 816.441,43.2166 818,41.5C 818.498,38.1832 818.665,34.8499 818.5,31.5C 820.167,31.5 821.833,31.5 823.5,31.5C 823.608,29.2166 824.441,27.2166 826,25.5C 826.498,22.1832 826.665,18.8499 826.5,15.5C 828.167,15.5 829.833,15.5 831.5,15.5C 831.979,10.4787 834.646,7.81205 839.5,7.5C 839.5,4.83333 839.5,2.16667 839.5,-0.5 Z"/></g>
<g><path style="opacity:1" fill="#245c51" d="M 983.5,-0.5 C 1220.83,-0.5 1458.17,-0.5 1695.5,-0.5C 1695.5,2.16667 1695.5,4.83333 1695.5,7.5C 1698.17,7.5 1700.83,7.5 1703.5,7.5C 1703.5,10.1667 1703.5,12.8333 1703.5,15.5C 1706.17,15.5 1708.83,15.5 1711.5,15.5C 1711.5,18.1667 1711.5,20.8333 1711.5,23.5C 1714.17,23.5 1716.83,23.5 1719.5,23.5C 1719.5,26.1667 1719.5,28.8333 1719.5,31.5C 1722.17,31.5 1724.83,31.5 1727.5,31.5C 1727.5,34.1667 1727.5,36.8333 1727.5,39.5C 1730.17,39.5 1732.83,39.5 1735.5,39.5C 1735.5,42.1667 1735.5,44.8333 1735.5,47.5C 1738.17,47.5 1740.83,47.5 1743.5,47.5C 1743.5,50.1667 1743.5,52.8333 1743.5,55.5C 1746.17,55.5 1748.83,55.5 1751.5,55.5C 1751.5,58.1667 1751.5,60.8333 1751.5,63.5C 1754.17,63.5 1756.83,63.5 1759.5,63.5C 1759.5,66.1667 1759.5,68.8333 1759.5,71.5C 1760.5,71.5 1761.5,71.5 1762.5,71.5C 1762.5,74.1667 1762.5,76.8333 1762.5,79.5C 1765.17,79.5 1767.83,79.5 1770.5,79.5C 1770.5,82.1667 1770.5,84.8333 1770.5,87.5C 1772.17,87.5 1773.83,87.5 1775.5,87.5C 1775.5,90.1667 1775.5,92.8333 1775.5,95.5C 1777.83,95.5 1780.17,95.5 1782.5,95.5C 1782.5,98.1667 1782.5,100.833 1782.5,103.5C 1783.83,103.5 1785.17,103.5 1786.5,103.5C 1786.5,106.167 1786.5,108.833 1786.5,111.5C 1788.17,111.5 1789.83,111.5 1791.5,111.5C 1793.75,116.524 1794.75,121.857 1794.5,127.5C 1796.17,127.5 1797.83,127.5 1799.5,127.5C 1799.61,129.783 1800.44,131.783 1802,133.5C 1802.5,136.817 1802.67,140.15 1802.5,143.5C 1804.5,143.5 1806.5,143.5 1808.5,143.5C 1808.67,146.168 1809.67,148.502 1811.5,150.5C 1809.41,154.844 1810.75,156.844 1815.5,156.5C 1817.69,162.619 1818.69,168.952 1818.5,175.5C 1820.17,175.5 1821.83,175.5 1823.5,175.5C 1823.34,177.527 1823.5,179.527 1824,181.5C 1826.16,184.148 1827.66,187.148 1828.5,190.5C 1826.74,193.212 1826.07,196.212 1826.5,199.5C 1828.29,199.215 1829.95,199.548 1831.5,200.5C 1831.98,203.787 1833.15,206.787 1835,209.5C 1839.92,224.511 1843.92,239.845 1847,255.5C 1848.51,266.224 1850.35,276.891 1852.5,287.5C 1853.28,298.188 1854.28,308.855 1855.5,319.5C 1857.06,345.241 1856.23,370.908 1853,396.5C 1850.93,408.091 1849.26,419.758 1848,431.5C 1844.03,443.262 1841.03,455.262 1839,467.5C 1834.5,480.01 1830.16,492.677 1826,505.5C 1819.16,520.972 1812.32,536.306 1805.5,551.5C 1802.47,551.132 1799.8,551.798 1797.5,553.5C 1796.68,557.647 1796.18,561.981 1796,566.5C 1794.96,567.623 1794.29,568.956 1794,570.5C 1771.61,607.898 1744.44,641.565 1712.5,671.5C 1710.7,672.986 1708.7,673.986 1706.5,674.5C 1706.61,676.903 1705.61,678.736 1703.5,680C 1693.63,687.712 1683.97,695.545 1674.5,703.5C 1620.63,742.098 1560.96,768.264 1495.5,782C 1467.71,787.679 1439.71,789.179 1411.5,786.5C 1407.5,787 1403.5,787.5 1399.5,788C 1402.17,788.333 1404.83,788.667 1407.5,789C 1387.12,789.077 1366.79,788.077 1346.5,786C 1219.94,765.347 1119.44,703.847 1045,601.5C 1039.3,593.424 1034.13,585.09 1029.5,576.5C 1028.68,575.614 1027.68,575.281 1026.5,575.5C 1026.31,573.436 1025.81,571.436 1025,569.5C 1021.82,564.957 1018.82,560.29 1016,555.5C 1011.57,544.068 1006.24,533.068 1000,522.5C 985.061,487.918 974.728,451.918 969,414.5C 968.243,412.685 967.41,411.019 966.5,409.5C 967.519,407.46 967.519,405.46 966.5,403.5C 965.46,408.584 963.126,412.917 959.5,416.5C 955.791,416.679 953.124,418.346 951.5,421.5C 950.222,421.782 949.222,422.449 948.5,423.5C 948.179,421.952 947.179,421.285 945.5,421.5C 945.095,419.35 944.595,417.35 944,415.5C 944.414,415.043 944.914,414.709 945.5,414.5C 946.281,415.737 947.281,416.737 948.5,417.5C 948.833,417.167 949.167,416.833 949.5,416.5C 949.071,413.888 948.071,412.388 946.5,412C 947.37,409.723 948.037,407.389 948.5,405C 948.316,403.624 947.649,402.791 946.5,402.5C 946.5,402.167 946.5,401.833 946.5,401.5C 948.95,399.371 950.617,396.704 951.5,393.5C 958.971,391.858 964.138,387.525 967,380.5C 967.798,378.741 967.631,377.074 966.5,375.5C 965.359,378.062 964.526,380.728 964,383.5C 962.961,384.71 961.794,385.71 960.5,386.5C 960.265,385.903 959.765,385.57 959,385.5C 957.28,386.723 955.447,387.723 953.5,388.5C 952.558,388.392 951.725,388.059 951,387.5C 950.918,382.495 950.918,377.495 951,372.5C 949.88,377.207 948.547,381.874 947,386.5C 946.014,387.171 944.847,387.171 943.5,386.5C 943.631,385.624 943.298,384.957 942.5,384.5C 939.514,386.935 936.181,388.602 932.5,389.5C 931.159,387.88 929.326,386.88 927,386.5C 926.501,382.514 926.334,378.514 926.5,374.5C 926.878,372.079 927.545,369.746 928.5,367.5C 930.5,366.5 932.5,365.5 934.5,364.5C 936.718,364.281 939.052,364.281 941.5,364.5C 940.975,365.192 940.308,365.692 939.5,366C 941.861,366.197 943.528,367.364 944.5,369.5C 945.029,366.743 946.029,364.243 947.5,362C 946.484,361.481 945.818,360.647 945.5,359.5C 946.602,356.027 947.602,352.527 948.5,349C 948.316,347.624 947.649,346.791 946.5,346.5C 946.5,346.167 946.5,345.833 946.5,345.5C 949.03,342.312 951.696,339.145 954.5,336C 963.173,333.791 967.34,328.291 967,319.5C 966.202,326.121 962.702,330.455 956.5,332.5C 954.743,332.007 952.909,331.673 951,331.5C 951.326,327.53 951.326,323.53 951,319.5C 949.143,330.016 947.643,330.016 946.5,319.5C 944.307,321.522 943.307,324.189 943.5,327.5C 941.007,327.131 940.34,327.797 941.5,329.5C 938.167,331.5 934.833,333.5 931.5,335.5C 929.583,336.746 927.75,337.413 926,337.5C 923.566,340.659 922.233,344.326 922,348.5C 920.457,345.176 920.624,341.843 922.5,338.5C 926.48,334.046 925.647,333.379 920,336.5C 919.5,336 919,335.5 918.5,335C 924.6,332.872 927.266,328.539 926.5,322C 926.472,320.93 926.139,320.097 925.5,319.5C 923.926,321.102 923.259,323.102 923.5,325.5C 921.861,327.806 919.861,329.806 917.5,331.5C 917.719,330.325 917.386,329.325 916.5,328.5C 913.297,329.502 911.463,328.168 911,324.5C 910.683,326.301 910.016,326.634 909,325.5C 906.992,328.139 905.159,328.139 903.5,325.5C 903.768,323.901 903.434,322.568 902.5,321.5C 902.19,320.262 901.69,320.262 901,321.5C 900.71,323.044 900.044,324.377 899,325.5C 898.808,323.423 898.308,321.423 897.5,319.5C 897.29,322.386 897.123,325.386 897,328.5C 889.607,330.129 885.607,327.129 885,319.5C 884.936,323.903 884.769,328.236 884.5,332.5C 883.833,329.023 883.166,325.689 882.5,322.5C 882.649,321.448 882.483,320.448 882,319.5C 881.697,322.999 880.864,326.332 879.5,329.5C 876.299,330.379 873.632,332.045 871.5,334.5C 869.938,334.733 868.605,335.4 867.5,336.5C 866.091,334.695 865.591,332.695 866,330.5C 868.802,329.67 871.635,328.837 874.5,328C 871.106,327.248 867.773,327.415 864.5,328.5C 863.029,331.321 863.363,333.821 865.5,336C 864.975,336.692 864.308,337.192 863.5,337.5C 863.167,335.833 862.833,334.167 862.5,332.5C 863.776,303.965 866.776,275.632 871.5,247.5C 874.167,247.5 876.833,247.5 879.5,247.5C 879.5,244.833 879.5,242.167 879.5,239.5C 877.833,239.5 876.167,239.5 874.5,239.5C 876.805,228.943 878.472,218.276 879.5,207.5C 880.5,207.5 881.5,207.5 882.5,207.5C 882.336,204.813 882.503,202.146 883,199.5C 885.871,191.732 887.371,183.732 887.5,175.5C 888.5,175.5 889.5,175.5 890.5,175.5C 891.388,172.757 892.555,170.09 894,167.5C 894.42,163.809 894.92,160.142 895.5,156.5C 897.144,156.714 898.644,156.38 900,155.5C 898.777,150.389 899.777,145.722 903,141.5C 903.495,139.527 903.662,137.527 903.5,135.5C 905.167,135.5 906.833,135.5 908.5,135.5C 908.335,132.15 908.502,128.817 909,125.5C 910.559,123.783 911.392,121.783 911.5,119.5C 913.167,119.5 914.833,119.5 916.5,119.5C 916.335,116.15 916.502,112.817 917,109.5C 918.559,107.783 919.392,105.783 919.5,103.5C 921.167,103.5 922.833,103.5 924.5,103.5C 924.303,98.0255 924.969,92.6922 926.5,87.5C 928.5,87.5 930.5,87.5 932.5,87.5C 932.335,84.1501 932.502,80.8168 933,77.5C 934.559,75.7834 935.392,73.7834 935.5,71.5C 937.167,71.5 938.833,71.5 940.5,71.5C 941.034,66.0156 942.034,60.6823 943.5,55.5C 944.5,55.5 945.5,55.5 946.5,55.5C 947.247,51.807 948.58,51.807 950.5,55.5C 950.833,54.8333 951.167,54.1667 951.5,53.5C 950.349,51.6746 949.682,49.6746 949.5,47.5C 952.833,47.5 956.167,47.5 959.5,47.5C 959.5,42.1667 959.5,36.8333 959.5,31.5C 962.167,31.5 964.833,31.5 967.5,31.5C 967.5,28.8333 967.5,26.1667 967.5,23.5C 969.167,23.5 970.833,23.5 972.5,23.5C 972.5,20.8333 972.5,18.1667 972.5,15.5C 973.5,15.5 974.5,15.5 975.5,15.5C 975.5,12.8333 975.5,10.1667 975.5,7.5C 978.167,7.5 980.833,7.5 983.5,7.5C 983.5,4.83333 983.5,2.16667 983.5,-0.5 Z"/></g>
<g><path style="opacity:1" fill="#ee6554" d="M 1095.5,156.5 C 1099.34,156.303 1101.68,158.136 1102.5,162C 1100.58,167.741 1097.08,168.908 1092,165.5C 1090.67,161.334 1091.83,158.334 1095.5,156.5 Z"/></g>
<g><path style="opacity:1" fill="#e25657" d="M 1746.5,207.5 C 1753,206.499 1755.5,209.165 1754,215.5C 1750.95,219.01 1747.62,219.343 1744,216.5C 1742.93,212.9 1743.76,209.9 1746.5,207.5 Z"/></g>
<g><path style="opacity:1" fill="#53c3e4" d="M 1479.5,233.5 C 1488.3,233.111 1490.3,236.444 1485.5,243.5C 1483.6,244.466 1481.6,244.799 1479.5,244.5C 1478.87,242.535 1478.2,240.535 1477.5,238.5C 1477.44,236.486 1478.1,234.819 1479.5,233.5 Z"/></g>
<g><path style="opacity:1" fill="#8f5e59" d="M 946.5,319.5 C 946.693,322.811 945.693,325.478 943.5,327.5C 943.307,324.189 944.307,321.522 946.5,319.5 Z"/></g>
<g><path style="opacity:1" fill="#9d625c" d="M 925.5,319.5 C 925.741,321.898 925.074,323.898 923.5,325.5C 923.259,323.102 923.926,321.102 925.5,319.5 Z"/></g>
<g><path style="opacity:1" fill="#a36360" d="M 882.5,322.5 C 882.821,325.577 881.821,327.91 879.5,329.5C 880.864,326.332 881.697,322.999 882,319.5C 882.483,320.448 882.649,321.448 882.5,322.5 Z"/></g>
<g><path style="opacity:1" fill="#995e5e" d="M 923.5,325.5 C 923.822,327.722 923.155,329.556 921.5,331C 918.52,333.324 915.187,334.824 911.5,335.5C 913.463,334.18 915.463,332.846 917.5,331.5C 919.861,329.806 921.861,327.806 923.5,325.5 Z"/></g>
<g><path style="opacity:1" fill="#a25c5f" d="M 879.5,329.5 C 879.586,330.496 879.252,331.329 878.5,332C 876.146,332.847 873.812,333.68 871.5,334.5C 873.632,332.045 876.299,330.379 879.5,329.5 Z"/></g>
<g><path style="opacity:1" fill="#985f5d" d="M 902.5,321.5 C 903.434,322.568 903.768,323.901 903.5,325.5C 901.809,330.852 898.142,334.185 892.5,335.5C 885.372,341.087 881.372,348.421 880.5,357.5C 876.341,360.747 872.008,363.747 867.5,366.5C 865.333,368.83 863.666,371.497 862.5,374.5C 861.833,375.833 861.167,375.833 860.5,374.5C 861.907,370.933 863.907,367.766 866.5,365C 870.753,362.29 874.92,359.457 879,356.5C 880.315,349.556 882.981,343.223 887,337.5C 891.843,334.412 896.509,331.079 901,327.5C 901.813,325.564 902.313,323.564 902.5,321.5 Z"/></g>
<g><path style="opacity:1" fill="#a1605b" d="M 926.5,343.5 C 927.349,340.319 929.015,337.652 931.5,335.5C 934.833,333.5 938.167,331.5 941.5,329.5C 943.507,328.321 943.84,328.821 942.5,331C 939.661,332.92 936.661,334.587 933.5,336C 931.3,338.697 928.967,341.197 926.5,343.5 Z"/></g>
<g><path style="opacity:1" fill="#8f625c" d="M 946.5,345.5 C 948.333,340.002 951.666,335.669 956.5,332.5C 962.702,330.455 966.202,326.121 967,319.5C 967.34,328.291 963.173,333.791 954.5,336C 951.696,339.145 949.03,342.312 946.5,345.5 Z"/></g>
<g><path style="opacity:1" fill="#986360" d="M 871.5,334.5 C 869.205,337.297 866.705,339.964 864,342.5C 863.613,339.696 864.779,337.696 867.5,336.5C 868.605,335.4 869.938,334.733 871.5,334.5 Z"/></g>
<g><path style="opacity:1" fill="#9f5e5a" d="M 911.5,335.5 C 908.772,339.276 906.272,343.276 904,347.5C 904.165,342.193 906.665,338.193 911.5,335.5 Z"/></g>
<g><path style="opacity:1" fill="#9b6060" d="M 926.5,343.5 C 925.566,348.673 924.066,353.673 922,358.5C 921.329,359.252 920.496,359.586 919.5,359.5C 922.267,355.285 923.933,350.619 924.5,345.5C 924.747,344.287 925.414,343.62 926.5,343.5 Z"/></g>
<g><path style="opacity:1" fill="#b25b65" d="M 946.5,345.5 C 946.5,345.833 946.5,346.167 946.5,346.5C 946.027,349.697 945.361,352.863 944.5,356C 944.026,357.608 943.359,357.774 942.5,356.5C 943.839,352.727 945.172,349.061 946.5,345.5 Z"/></g>
<g><path style="opacity:1" fill="#9a5f5c" d="M 951.5,365.5 C 954.26,362.416 957.593,360.083 961.5,358.5C 963.978,355.211 965.644,351.544 966.5,347.5C 967.422,351.484 966.589,355.151 964,358.5C 960.183,361.491 956.016,363.825 951.5,365.5 Z"/></g>
<g><path style="opacity:1" fill="#90615a" d="M 902.5,348.5 C 903.876,351.933 903.376,355.266 901,358.5C 896.083,361.474 891.416,364.807 887,368.5C 884.246,373.166 882.246,378.166 881,383.5C 881.064,377.637 882.564,372.137 885.5,367C 889.532,363.228 894.032,360.062 899,357.5C 899.615,355.884 900.615,354.551 902,353.5C 902.494,351.866 902.66,350.199 902.5,348.5 Z"/></g>
<g><path style="opacity:1" fill="#9c5e60" d="M 934.5,364.5 C 932.5,365.5 930.5,366.5 928.5,367.5C 931.647,362.446 935.981,359.779 941.5,359.5C 938.852,360.828 936.519,362.494 934.5,364.5 Z"/></g>
<g><path style="opacity:1" fill="#936058" d="M 951.5,365.5 C 948.071,371.032 945.738,377.032 944.5,383.5C 943.989,379.841 944.489,376.174 946,372.5C 946.991,369.36 948.824,367.026 951.5,365.5 Z"/></g>
<g><path style="opacity:1" fill="#97605e" d="M 928.5,367.5 C 927.545,369.746 926.878,372.079 926.5,374.5C 925.509,378.101 924.342,381.768 923,385.5C 920.397,388.278 917.23,389.944 913.5,390.5C 916.579,388.533 919.412,386.2 922,383.5C 923.091,379.54 924.091,375.54 925,371.5C 925.949,369.907 927.115,368.574 928.5,367.5 Z"/></g>
<g><path style="opacity:1" fill="#886157" d="M 951.5,393.5 C 953.923,390.452 956.923,388.118 960.5,386.5C 961.794,385.71 962.961,384.71 964,383.5C 964.526,380.728 965.359,378.062 966.5,375.5C 967.631,377.074 967.798,378.741 967,380.5C 964.138,387.525 958.971,391.858 951.5,393.5 Z"/></g>
<g><path style="opacity:1" fill="#ad5f5c" d="M 871.5,390.5 C 873.513,388.503 875.846,386.836 878.5,385.5C 878.833,385.833 879.167,386.167 879.5,386.5C 877.09,388.372 874.423,389.705 871.5,390.5 Z"/></g>
<g><path style="opacity:1" fill="#96605d" d="M 871.5,390.5 C 868.154,394.515 864.82,397.848 861.5,400.5C 863.211,395.455 866.544,392.122 871.5,390.5 Z"/></g>
<g><path style="opacity:1" fill="#9a5e5e" d="M 951.5,393.5 C 950.617,396.704 948.95,399.371 946.5,401.5C 947.151,398.197 948.818,395.53 951.5,393.5 Z"/></g>
<g><path style="opacity:1" fill="#975f5a" d="M 943.5,386.5 C 932.022,390.476 925.522,398.476 924,410.5C 923.388,413.115 921.888,414.781 919.5,415.5C 922.576,409.884 924.743,403.884 926,397.5C 928.403,394.94 930.57,392.273 932.5,389.5C 936.181,388.602 939.514,386.935 942.5,384.5C 943.298,384.957 943.631,385.624 943.5,386.5 Z"/></g>
<g><path style="opacity:1" fill="#975e5e" d="M 913.5,390.5 C 913.631,391.239 913.464,391.906 913,392.5C 909.933,394.751 907.1,397.084 904.5,399.5C 906.402,395.326 909.402,392.326 913.5,390.5 Z"/></g>
<g><path style="opacity:1" fill="#b25e63" d="M 946.5,401.5 C 946.5,401.833 946.5,402.167 946.5,402.5C 946.279,405.067 945.612,407.401 944.5,409.5C 944.294,406.505 944.96,403.838 946.5,401.5 Z"/></g>
<g><path style="opacity:1" fill="#92605c" d="M 966.5,409.5 C 965.719,413.404 963.385,415.737 959.5,416.5C 963.126,412.917 965.46,408.584 966.5,403.5C 967.519,405.46 967.519,407.46 966.5,409.5 Z"/></g>
<g><path style="opacity:1" fill="#99615a" d="M 904.5,399.5 C 904.541,404.795 903.375,409.795 901,414.5C 896.113,416.881 891.613,419.881 887.5,423.5C 884.587,427.876 882.587,432.543 881.5,437.5C 880.996,430.509 883.329,424.675 888.5,420C 893.887,417.555 898.387,414.055 902,409.5C 902.149,405.867 902.982,402.534 904.5,399.5 Z"/></g>
<g><path style="opacity:1" fill="#a45c60" d="M 959.5,416.5 C 957.178,418.664 954.511,420.331 951.5,421.5C 953.124,418.346 955.791,416.679 959.5,416.5 Z"/></g>
<g><path style="opacity:1" fill="#965c5d" d="M 944.5,409.5 C 943.716,415.102 940.383,418.269 934.5,419C 930.578,422.251 927.412,426.084 925,430.5C 926.435,422.891 930.935,417.891 938.5,415.5C 940.548,413.452 942.548,411.452 944.5,409.5 Z"/></g>
<g><path style="opacity:1" fill="#9f5c5b" d="M 919.5,415.5 C 912.496,419.004 907.33,424.338 904,431.5C 905.154,422.51 910.32,417.176 919.5,415.5 Z"/></g>
<g><path style="opacity:1" fill="#9b605c" d="M 951.5,421.5 C 948.266,427.296 945.6,433.296 943.5,439.5C 943.689,433.678 945.356,428.345 948.5,423.5C 949.222,422.449 950.222,421.782 951.5,421.5 Z"/></g>
<g><path style="opacity:1" fill="#92605d" d="M 919.5,359.5 C 909.259,364.619 903.425,372.952 902,384.5C 897.144,388.675 892.144,392.675 887,396.5C 884.603,402.526 882.103,408.526 879.5,414.5C 875.93,417.019 872.263,419.352 868.5,421.5C 865.358,424.302 863.025,427.635 861.5,431.5C 861.167,431.167 860.833,430.833 860.5,430.5C 861.194,427.912 862.36,425.579 864,423.5C 868.46,419.032 873.46,415.365 879,412.5C 880.315,405.556 882.981,399.223 887,393.5C 891.917,390.526 896.584,387.193 901,383.5C 901.652,374.479 905.485,367.312 912.5,362C 914.743,360.864 917.076,360.03 919.5,359.5 Z"/></g>
<g><path style="opacity:1" fill="#a9605e" d="M 923.5,437.5 C 923.181,435.25 923.681,433.25 925,431.5C 925.738,433.881 925.238,435.881 923.5,437.5 Z"/></g>
<g><path style="opacity:1" fill="#925e61" d="M 923.5,437.5 C 923.822,439.722 923.155,441.556 921.5,443C 918.386,444.983 915.053,446.483 911.5,447.5C 915.909,444.633 919.909,441.299 923.5,437.5 Z"/></g>
<g><path style="opacity:1" fill="#906055" d="M 951.5,449.5 C 951.414,448.504 951.748,447.671 952.5,447C 960.236,444.438 964.903,439.272 966.5,431.5C 967.476,434.497 967.31,437.497 966,440.5C 961.519,444.15 956.686,447.15 951.5,449.5 Z"/></g>
<g><path style="opacity:1" fill="#a45e58" d="M 881.5,437.5 C 880.161,442.498 876.827,445.498 871.5,446.5C 875.252,443.959 878.585,440.959 881.5,437.5 Z"/></g>
<g><path style="opacity:1" fill="#ed6357" d="M 150.5,439.5 C 159.937,439.716 161.604,443.216 155.5,450C 149.687,450.171 147.52,447.338 149,441.5C 149.717,440.956 150.217,440.289 150.5,439.5 Z"/></g>
<g><path style="opacity:1" fill="#915f5b" d="M 902.5,432.5 C 903.938,437.656 902.271,441.823 897.5,445C 890.307,447.526 885.474,452.359 883,459.5C 883.629,454.146 886.129,449.646 890.5,446C 897.402,444.001 901.402,439.501 902.5,432.5 Z"/></g>
<g><path style="opacity:1" fill="#9b5f5a" d="M 951.5,449.5 C 950.679,452.663 949.012,455.33 946.5,457.5C 945.479,456.998 945.312,456.332 946,455.5C 947.617,453.237 949.45,451.237 951.5,449.5 Z"/></g>
<g><path style="opacity:1" fill="#9a6160" d="M 871.5,446.5 C 867.799,449.555 864.799,453.222 862.5,457.5C 862.812,451.98 865.812,448.313 871.5,446.5 Z"/></g>
<g><path style="opacity:1" fill="#926359" d="M 943.5,439.5 C 943.719,440.675 943.386,441.675 942.5,442.5C 935.247,445.756 929.58,450.756 925.5,457.5C 925.167,457.167 924.833,456.833 924.5,456.5C 926.306,453.528 928.306,450.695 930.5,448C 935.194,445.657 939.527,442.824 943.5,439.5 Z"/></g>
<g><path style="opacity:1" fill="#8c6057" d="M 911.5,447.5 C 908.759,451.309 906.259,455.309 904,459.5C 903.365,457.365 903.699,455.365 905,453.5C 906.535,450.706 908.702,448.706 911.5,447.5 Z"/></g>
<g><path style="opacity:1" fill="#2e97cf" d="M 1805.5,551.5 C 1805.75,552.922 1806.58,553.922 1808,554.5C 1809,561.001 1806.16,563.667 1799.5,562.5C 1798.22,559.664 1797.56,556.664 1797.5,553.5C 1799.8,551.798 1802.47,551.132 1805.5,551.5 Z"/></g>
<g><path style="opacity:1" fill="#d49550" d="M 923.5,585.5 C 924.496,585.414 925.329,585.748 926,586.5C 927.351,591.09 925.851,594.09 921.5,595.5C 916.622,594.417 914.789,591.417 916,586.5C 918.357,584.354 920.857,584.021 923.5,585.5 Z"/></g>
<g><path style="opacity:1" fill="#f99742" d="M 923.5,585.5 C 926.426,588.69 925.926,591.356 922,593.5C 921.5,593.333 921,593.167 920.5,593C 923.105,591.069 923.105,589.236 920.5,587.5C 917.65,591.403 916.983,590.903 918.5,586C 920.134,585.506 921.801,585.34 923.5,585.5 Z"/></g>
<g><path style="opacity:1" fill="#376e63" d="M 1538.5,679.5 C 1540.29,679.215 1541.95,679.548 1543.5,680.5C 1480.24,704.54 1414.91,711.373 1347.5,701C 1340.57,700.303 1333.9,698.636 1327.5,696C 1338.34,696.356 1349.01,698.023 1359.5,701C 1413.95,708.231 1467.29,703.565 1519.5,687C 1526.05,684.767 1532.39,682.267 1538.5,679.5 Z"/></g>
<g><path style="opacity:1" fill="#28a55e" d="M 1711.5,791.5 C 1720.47,790.785 1723.13,794.451 1719.5,802.5C 1716.83,802.5 1714.17,802.5 1711.5,802.5C 1710.17,798.833 1710.17,795.167 1711.5,791.5 Z"/></g>
<g><path style="opacity:1" fill="#9750db" d="M 688.5,839.5 C 691.188,839.166 693.521,839.832 695.5,841.5C 695.5,843.5 695.5,845.5 695.5,847.5C 695.5,848.167 695.5,848.833 695.5,849.5C 686.106,850.485 683.773,847.152 688.5,839.5 Z"/></g>
<g><path style="opacity:1" fill="#4a587e" d="M 688.5,839.5 C 683.773,847.152 686.106,850.485 695.5,849.5C 692.101,850.82 688.601,850.82 685,849.5C 683.581,845.047 684.748,841.714 688.5,839.5 Z"/></g>
<g><path style="opacity:1" fill="#5c5d94" d="M 695.5,841.5 C 696.947,842.134 697.613,843.301 697.5,845C 697.316,846.376 696.649,847.209 695.5,847.5C 695.5,845.5 695.5,843.5 695.5,841.5 Z"/></g>
<g><path style="opacity:1" fill="#386f64" d="M 1263.5,872.5 C 1264.27,871.853 1265.27,871.52 1266.5,871.5C 1297.04,879.59 1328.04,885.09 1359.5,888C 1375.48,889.166 1391.48,889.999 1407.5,890.5C 1431.55,889.887 1455.55,888.72 1479.5,887C 1406.47,896.622 1334.47,891.789 1263.5,872.5 Z"/></g>
<g><path style="opacity:1" fill="#356d62" d="M 1679.5,947.5 C 1681.34,947.639 1681.67,948.306 1680.5,949.5C 1636.22,968.816 1590.55,983.649 1543.5,994C 1530.21,996.328 1516.88,997.994 1503.5,999C 1564.65,989.553 1623.32,972.387 1679.5,947.5 Z"/></g>
</svg>
